<svg width="1188" height="509" viewBox="0 0 1188 509" fill="none" xmlns="http://www.w3.org/2000/svg">
<g id="static 1">
<g id="static">
<path id="Vector" d="M260.758 283.959C260.77 282.397 260.458 280.849 259.844 279.413C259.23 277.976 258.327 276.682 257.19 275.61C256.054 274.539 254.708 273.712 253.239 273.185C251.768 272.656 250.205 272.437 248.647 272.54C247.089 272.643 245.568 273.066 244.181 273.783C242.793 274.499 241.568 275.496 240.582 276.707C239.597 277.919 238.871 279.321 238.451 280.826C238.032 282.331 237.927 283.907 238.143 285.453L205.498 328.215C204.105 331.001 203.565 334.138 203.945 337.23C204.326 340.322 205.611 343.234 207.637 345.6L210.198 348.588L221.948 346.236L235.264 334.483L233.698 321.164L250.148 295.307L250.127 295.288C253.006 295.105 255.707 293.831 257.683 291.727C259.657 289.623 260.757 286.845 260.758 283.959Z" fill="#FFB9B9"/>
<path id="Vector 2" d="M35.0066 493.016L29.6777 473.219L103.479 443.241L111.342 472.458L35.0066 493.016Z" fill="#FFB8B8"/>
<path id="Vector 3" d="M17.1812 503.231L0 439.4L0.807132 439.183C7.39451 437.408 14.4165 438.324 20.3287 441.73C26.2408 445.134 30.5589 450.748 32.3331 457.337L32.3335 457.339L42.827 496.324L17.1812 503.231Z" fill="#2F2E41"/>
<path id="Vector 4" d="M136.663 489.853L120.088 477.795L158.695 408.105L183.16 425.9L136.663 489.853Z" fill="#FFB8B8"/>
<path id="Vector 5" d="M129.207 509L75.7591 470.12L76.2507 469.444C80.2632 463.926 86.3028 460.228 93.0412 459.163C99.7795 458.098 106.664 459.755 112.182 463.767L112.184 463.768L144.828 487.515L129.207 509Z" fill="#3D3C55"/>
<path id="Vector 6" d="M277.564 392.466L235.853 351.934C232.212 348.397 227.418 346.293 222.35 346.01C217.282 345.727 212.283 347.283 208.272 350.393L129.514 437.912L136.564 448.881L211.764 397.95L262.681 464.552L311.248 440.262L277.564 392.466Z" fill="#484759"/>
<path id="Vector 7" d="M259.548 401.085L228.998 398.735L206.874 393.369C205.624 391.419 203.808 389.897 201.67 389.008C199.532 388.118 197.173 387.903 194.909 388.392C192.646 388.88 190.585 390.049 189.004 391.74C187.423 393.432 186.395 395.567 186.061 397.86C185.726 400.151 186.099 402.491 187.13 404.565C188.16 406.639 189.801 408.349 191.83 409.465C193.859 410.581 196.181 411.05 198.484 410.81C200.787 410.57 202.963 409.632 204.717 408.121L204.714 408.137L218.031 413.621L275.214 433.211L282.265 427.726L259.548 401.085Z" fill="#FFB9B9"/>
<path id="Vector 8" d="M333.181 485.709L315.947 496.678H295.58L200.798 461.419L62.1475 486.492L58.231 456.716L185.131 401.085L296.365 437.911L333.181 485.709Z" fill="#39384B"/>
<path id="Vector 9" d="M296.364 295.307C313.237 295.307 326.914 281.624 326.914 264.748C326.914 247.871 313.237 234.189 296.364 234.189C279.492 234.189 265.814 247.871 265.814 264.748C265.814 281.624 279.492 295.307 296.364 295.307Z" fill="#FFB9B9"/>
<path id="Vector 10" d="M375.411 386.753C375.41 405.196 372.505 423.523 366.802 441.062L364.515 448.097L353.548 498.245L341.798 501.378L333.181 490.409L315.948 477.873L303.415 457.5L292.667 439.588L289.315 433.994L277.564 375.228L232.915 350.155L218.031 347.804L221.165 339.185L234.481 321.164L247.797 319.596L251.715 316.462L254.848 318.029L272.12 324.684L328.121 301.018L336.314 302.358L364.515 325.864C371.723 345.355 375.413 365.972 375.411 386.753Z" fill="#CCCCCC"/>
<path id="Vector 11" opacity="0.1" d="M366.864 379.929L337.097 399.518L292.667 439.587L289.315 433.994L279.915 386.981H282.265L306.548 342.32L366.864 379.929Z" fill="black"/>
<path id="Vector 12" d="M306.548 337.617L282.265 382.28L268.164 397.95L255.632 401.085L289.315 437.911L337.097 394.817L366.864 375.228L306.548 337.617Z" fill="#CCCCCC"/>
<path id="Vector 13" d="M272.603 242.026L269.293 243.3C268.79 242.96 268.36 242.524 268.025 242.017C267.692 241.51 267.461 240.942 267.346 240.347C267.231 239.751 267.235 239.138 267.357 238.544C267.479 237.949 267.717 237.385 268.057 236.882C268.075 236.855 268.093 236.829 268.112 236.803L261.995 236.517C265.921 231.286 270.913 226.948 276.641 223.792C282.369 220.635 288.702 218.731 295.221 218.205C301.739 217.68 308.295 218.544 314.454 220.743C320.614 222.941 326.235 226.423 330.949 230.957C331.227 229.998 334.264 231.865 335.503 233.758C335.92 232.196 338.765 239.743 339.773 245.077C340.239 243.301 342.031 246.168 340.46 248.921C341.456 248.775 341.905 251.32 341.135 252.739C342.223 252.228 342.04 255.267 340.86 257.297C342.413 257.159 340.727 289.155 317.422 286.825C315.799 279.367 316.256 279.831 314.346 270.242C313.456 269.298 312.482 268.438 311.511 267.579L306.252 262.937C300.137 257.538 294.575 250.874 286.429 248.856C280.831 247.47 277.291 247.157 280.342 240.847C277.586 241.998 275.012 243.708 272.231 244.776C272.268 243.895 272.657 242.908 272.603 242.026Z" fill="#2F2E41"/>
<path id="Vector 14" d="M311.639 273.759C314.668 273.759 317.123 271.303 317.123 268.274C317.123 265.245 314.668 262.789 311.639 262.789C308.611 262.789 306.157 265.245 306.157 268.274C306.157 271.303 308.611 273.759 311.639 273.759Z" fill="#FFB9B9"/>
<path id="Vector 15" d="M1122.5 0H377.433C374.739 -3.06137e-06 372.073 0.530579 369.584 1.56146C367.096 2.59232 364.836 4.10329 362.931 6.0081C361.027 7.9129 359.517 10.1742 358.486 12.663C357.455 15.1517 356.926 17.8191 356.926 20.513V435.764C356.926 438.458 357.455 441.126 358.486 443.614C359.517 446.102 361.027 448.364 362.931 450.269C364.836 452.174 367.096 453.685 369.584 454.715C372.073 455.747 374.739 456.277 377.433 456.277H1122.5C1127.94 456.277 1133.15 454.116 1137.01 450.269C1140.85 446.422 1143.01 441.204 1143.01 435.764V20.513C1143.01 15.0726 1140.85 9.85504 1137.01 6.00812C1133.15 2.16119 1127.94 3.0914e-06 1122.5 0Z" fill="#5C5C5C"/>
<path id="Vector 16" d="M1115.51 36.2521H384.419V448.776H1115.51V36.2521Z" fill="#1C1C1C"/>
<path id="Vector 17" d="M749.343 25.0015C753.484 25.0015 756.841 21.6434 756.841 17.501C756.841 13.3587 753.484 10.0006 749.343 10.0006C745.202 10.0006 741.844 13.3587 741.844 17.501C741.844 21.6434 745.202 25.0015 749.343 25.0015Z" fill="white"/>
<path id="Vector 26" d="M1163.54 441.276H1092.19V436.134C1092.19 436 1092.16 435.868 1092.1 435.744C1092.05 435.621 1091.98 435.508 1091.89 435.413C1091.8 435.319 1091.68 435.243 1091.56 435.192C1091.44 435.141 1091.3 435.115 1091.17 435.115H1066.71C1066.57 435.115 1066.44 435.141 1066.32 435.192C1066.19 435.243 1066.08 435.319 1065.99 435.413C1065.89 435.508 1065.81 435.621 1065.76 435.744C1065.71 435.868 1065.69 436 1065.69 436.134V441.276H1050.4V436.134C1050.4 436 1050.37 435.868 1050.31 435.744C1050.26 435.621 1050.19 435.508 1050.1 435.413C1050 435.319 1049.89 435.243 1049.77 435.192C1049.64 435.141 1049.51 435.115 1049.38 435.115H1024.91C1024.78 435.115 1024.65 435.141 1024.52 435.192C1024.4 435.243 1024.29 435.319 1024.19 435.413C1024.1 435.508 1024.02 435.621 1023.97 435.744C1023.92 435.868 1023.89 436 1023.89 436.134V441.276H1008.6V436.134C1008.6 436 1008.58 435.868 1008.53 435.744C1008.48 435.621 1008.4 435.508 1008.31 435.413C1008.21 435.319 1008.1 435.243 1007.98 435.192C1007.85 435.141 1007.72 435.115 1007.59 435.115H983.123C982.989 435.115 982.856 435.141 982.733 435.192C982.609 435.243 982.497 435.319 982.402 435.413C982.307 435.508 982.232 435.621 982.181 435.744C982.13 435.868 982.103 436 982.103 436.134V441.276H966.815V436.134C966.815 436 966.788 435.868 966.736 435.744C966.686 435.621 966.611 435.508 966.516 435.413C966.421 435.319 966.309 435.243 966.185 435.192C966.061 435.141 965.929 435.115 965.795 435.115H941.332C941.198 435.115 941.066 435.141 940.942 435.192C940.819 435.243 940.706 435.319 940.612 435.413C940.517 435.508 940.442 435.621 940.39 435.744C940.34 435.868 940.313 436 940.313 436.134V441.276H925.023V436.134C925.023 436 924.997 435.868 924.946 435.744C924.895 435.621 924.819 435.508 924.725 435.413C924.63 435.319 924.518 435.243 924.394 435.192C924.27 435.141 924.138 435.115 924.004 435.115H899.542C899.408 435.115 899.275 435.141 899.151 435.192C899.028 435.243 898.915 435.319 898.82 435.413C898.726 435.508 898.65 435.621 898.6 435.744C898.548 435.868 898.522 436 898.522 436.134V441.276H883.232V436.134C883.232 436 883.206 435.868 883.155 435.744C883.103 435.621 883.028 435.508 882.934 435.413C882.84 435.319 882.727 435.243 882.604 435.192C882.48 435.141 882.347 435.115 882.213 435.115H857.75C857.616 435.115 857.484 435.141 857.36 435.192C857.236 435.243 857.124 435.319 857.029 435.413C856.935 435.508 856.86 435.621 856.809 435.744C856.757 435.868 856.732 436 856.732 436.134V441.276H841.442V436.134C841.442 436 841.415 435.868 841.365 435.744C841.313 435.621 841.238 435.508 841.143 435.413C841.048 435.319 840.936 435.243 840.812 435.192C840.689 435.141 840.557 435.115 840.423 435.115H648.796C648.662 435.115 648.53 435.141 648.406 435.192C648.282 435.243 648.17 435.319 648.075 435.413C647.98 435.508 647.906 435.621 647.855 435.744C647.803 435.868 647.777 436 647.777 436.134V441.276H632.488V436.134C632.488 436 632.461 435.868 632.41 435.744C632.359 435.621 632.284 435.508 632.189 435.413C632.094 435.319 631.982 435.243 631.858 435.192C631.735 435.141 631.602 435.115 631.468 435.115H607.005C606.871 435.115 606.739 435.141 606.616 435.192C606.492 435.243 606.38 435.319 606.285 435.413C606.19 435.508 606.115 435.621 606.063 435.744C606.013 435.868 605.986 436 605.986 436.134V441.276H590.697V436.134C590.697 436 590.67 435.868 590.619 435.744C590.568 435.621 590.493 435.508 590.398 435.413C590.304 435.319 590.191 435.243 590.067 435.192C589.943 435.141 589.812 435.115 589.678 435.115H565.215C565.081 435.115 564.948 435.141 564.824 435.192C564.701 435.243 564.588 435.319 564.494 435.413C564.399 435.508 564.324 435.621 564.273 435.744C564.222 435.868 564.195 436 564.195 436.134V441.276H548.905V436.134C548.905 436 548.88 435.868 548.828 435.744C548.777 435.621 548.701 435.508 548.608 435.413C548.513 435.319 548.401 435.243 548.277 435.192C548.153 435.141 548.02 435.115 547.886 435.115H523.424C523.29 435.115 523.157 435.141 523.033 435.192C522.91 435.243 522.797 435.319 522.702 435.413C522.609 435.508 522.534 435.621 522.482 435.744C522.43 435.868 522.405 436 522.405 436.134V441.276H507.115V436.134C507.115 436 507.088 435.868 507.038 435.744C506.986 435.621 506.911 435.508 506.816 435.413C506.722 435.319 506.609 435.243 506.486 435.192C506.362 435.141 506.229 435.115 506.096 435.115H481.633C481.499 435.115 481.367 435.141 481.243 435.192C481.119 435.243 481.007 435.319 480.912 435.413C480.817 435.508 480.742 435.621 480.691 435.744C480.64 435.868 480.614 436 480.614 436.134V441.276H465.324V436.134C465.324 436 465.298 435.868 465.247 435.744C465.195 435.621 465.12 435.508 465.025 435.413C464.931 435.319 464.818 435.243 464.695 435.192C464.571 435.141 464.439 435.115 464.305 435.115H439.842C439.571 435.115 439.313 435.222 439.121 435.413C438.93 435.604 438.822 435.864 438.822 436.134V441.276H423.533V436.134C423.533 436 423.507 435.868 423.456 435.744C423.404 435.621 423.33 435.508 423.235 435.413C423.14 435.319 423.028 435.243 422.904 435.192C422.781 435.141 422.648 435.115 422.514 435.115H398.051C397.781 435.115 397.521 435.222 397.331 435.413C397.139 435.604 397.032 435.864 397.032 436.134V441.276H350.145C343.657 441.276 337.434 443.854 332.847 448.443C328.259 453.032 325.682 459.256 325.682 465.745V476.81C325.682 483.3 328.259 489.524 332.847 494.113C337.434 498.702 343.657 501.279 350.145 501.279H1163.54C1170.02 501.279 1176.24 498.702 1180.84 494.113C1185.42 489.524 1188 483.3 1188 476.81V465.745C1188 462.533 1187.37 459.351 1186.14 456.381C1184.91 453.413 1183.11 450.715 1180.84 448.443C1178.56 446.171 1175.86 444.368 1172.9 443.139C1169.93 441.909 1166.75 441.276 1163.54 441.276Z" fill="#5C5C5C"/>
<g id="Group 1">
<path id="rectangle1" d="M55.9314 138.733L54.258 163.867L79.3846 165.54L81.0579 140.408L55.9314 138.733Z" fill="#E6E6E6"/>
<path id="outline1" d="M39.7198 152.08L70.2306 154.112L68.1986 184.631L37.6879 182.598L39.7198 152.08ZM68.8156 155.35L40.9581 153.494L39.1028 181.36L66.9604 183.215L68.8156 155.35Z" fill="#64F4AC"/>
<path id="rectangle2" d="M197.925 64.2061L173.305 69.4977L178.595 94.1245L203.215 88.833L197.925 64.2061Z" fill="#E6E6E6"/>
<path id="outline2" d="M180.645 52.2778L187.068 82.1819L157.172 88.6073L150.748 58.7033L180.645 52.2778ZM185.49 81.1611L179.624 53.8573L152.328 59.7241L158.193 87.0278L185.49 81.1611Z" fill="#64F4AC"/>
<path id="rectangle3" d="M172.055 182.473L153.676 199.693L170.892 218.077L189.27 200.857L172.055 182.473Z" fill="#E6E6E6"/>
<path id="outline3" d="M190.592 179.897L168.275 200.807L147.371 178.484L169.688 157.574L190.592 179.897ZM168.336 198.927L188.713 179.836L169.626 159.453L149.25 178.545L168.336 198.927Z" fill="#64F4AC"/>
</g>
</g>
<path id="Vector_2" d="M655.813 95.2614H608.164V104.651H655.813V95.2614Z" fill="#D2D2D2"/>
<path id="Vector_3" d="M603.459 119.026H473.52V128.677H603.459V119.026Z" fill="#D2D2D2"/>
<path id="Vector_4" d="M675.918 119.026H625.113V128.677H675.918V119.026Z" fill="#D2D2D2"/>
<path id="Vector_5" d="M564.898 167.099H488.68V176.75H564.898V167.099Z" fill="#D2D2D2"/>
<path id="Vector_6" d="M550.925 359.349H473.621V369H550.925V359.349Z" fill="#D2D2D2"/>
<path id="Vector_7" d="M637.819 359.55H572.739V369H637.819V359.55Z" fill="#D2D2D2"/>
<path id="Vector_8" d="M726.744 191.125H674.611V200.776H726.744V191.125Z" fill="#D2D2D2"/>
<path id="Vector_9" d="M606.073 191.829H551.327V200.776H606.073V191.829Z" fill="#D2D2D2"/>
<path id="Vector_10" d="M529.714 191.769H473.44V200.796H529.714V191.769Z" fill="#D2D2D2"/>
<path id="Vector_11" d="M652.456 191.407H627.686V200.776H652.456V191.407Z" fill="#D2D2D2"/>
<path id="Vector_12" d="M550.985 215.192H473.581V224.822H550.985V215.192Z" fill="#D2D2D2"/>
<path id="Vector_13" d="M619.664 215.172H572.759V224.822H619.664V215.172Z" fill="#D2D2D2"/>
<path id="Vector_14" d="M666.107 215.614H641.418V224.822H666.107V215.614Z" fill="#D2D2D2"/>
<path id="Vector_15" d="M573.724 239.218H547.688V248.828H573.724V239.218Z" fill="#D2D2D2"/>
<path id="Vector_16" d="M647.992 239.198H595.478V248.849H647.992V239.198Z" fill="#D2D2D2"/>
<path id="Vector_17" d="M740.998 263.305H702.98V272.875H740.998V263.305Z" fill="#D2D2D2"/>
<path id="Vector_18" d="M538.379 263.224H460.13V272.875H538.379V263.224Z" fill="#D2D2D2"/>
<path id="Vector_19" d="M594.392 263.305H560.354V272.875H594.392V263.305Z" fill="#D2D2D2"/>
<path id="Vector_20" d="M681.306 263.305H616.126V272.875H681.306V263.305Z" fill="#D2D2D2"/>
<path id="Vector_21" d="M613.15 287.25H534.278V296.901H613.15V287.25Z" fill="#D2D2D2"/>
<path id="Vector_22" d="M512.243 287.451H485.925V296.901H512.243V287.451Z" fill="#D2D2D2"/>
<g id="Group 2">
<path id="Vector_23" d="M586.529 95H447V104.651H586.529V95Z" fill="#D2D2D2"/>
<path id="Vector_24" d="M525.854 239.198H447.002V248.849H525.854V239.198Z" fill="#D2D2D2"/>
<path id="Vector_25" d="M523.743 311.297H447.002V320.947H523.743V311.297Z" fill="#D2D2D2"/>
</g>
<path id="Vector_26" d="M623.745 311.297H545.436V320.947H623.745V311.297Z" fill="#D2D2D2"/>
<path id="Vector_27" d="M630.179 335.323H522.396V344.974H630.179V335.323Z" fill="#D2D2D2"/>
<path id="Vector_28" d="M525.954 143.073H473.46V152.723H525.954V143.073Z" fill="#D2D2D2"/>
<path id="Vector_29" d="M643.247 143.233H593.809V152.723H643.247V143.233Z" fill="#D2D2D2"/>
<path id="Vector_30" d="M571.874 143.233H547.869V152.723H571.874V143.233Z" fill="#D2D2D2"/>
</g>
</svg>
